<?xml version="1.0" encoding="utf-8"?>
<!-- Generator: Adobe Illustrator 21.0.0, SVG Export Plug-In . SVG Version: 6.00 Build 0)  -->
<svg version="1.1" id="Layer_1" xmlns="http://www.w3.org/2000/svg" xmlns:xlink="http://www.w3.org/1999/xlink" x="0px" y="0px"
	 viewBox="0 0 294 294" style="enable-background:new 0 0 294 294;" xml:space="preserve">
<style type="text/css">
	.st0{fill:#8BC53F;}
	.st1{opacity:0.4;fill:#433E35;}
	.st2{opacity:0.4;}
	.st3{fill:#433E35;}
	.st4{fill:#FFFFFF;}
</style>
<circle class="st0" cx="147" cy="147" r="147"/>
<g>
	<g>
		<path class="st1" d="M158.6,151.5c11.9-18.3,17.4-37.4,15.5-50.2c12.2,19.5,41,62.3,76,90.9c0,0,4.2,22.4-18.1,26.6
			c0,0-59.9-25-109.3-34.1C134.4,180,147.8,168,158.6,151.5z"/>
		<g>
			<path class="st1" d="M240.9,226c0.3,0,0.7-0.1,1-0.2c21.4-9.3,17.2-29.9,17.1-30.1c-0.4-1.6-2-2.7-3.6-2.3
				c-1.6,0.4-2.7,2-2.3,3.6c0.1,0.7,3.1,16-13.6,23.3c-1.5,0.7-2.2,2.5-1.6,4C238.4,225.4,239.6,226.1,240.9,226z"/>
		</g>
		<g class="st2">
			<path class="st3" d="M189.5,226.6c3.4-0.3,7.2-1.8,10.6-5.9l5.3-6.4c1.1-1.3,0.9-3.2-0.4-4.3c-1.3-1.1-3.2-0.9-4.3,0.4l-5.3,6.4
				c-4.7,5.7-9.9,3.2-10.1,3.1c-0.1-0.1-0.2-0.1-0.3-0.1c-0.2-0.1-20.2-7.5-28.6-13.3c-3.5-2.4,0.8-9.2,0.8-9.2
				c0.9-1.4,0.5-3.3-0.9-4.2c-1.4-0.9-3.3-0.5-4.2,0.9c-2.7,4.1-5.9,12.9,0.9,17.6c8.8,6,27.8,13.2,29.8,13.9
				C184.3,226.3,186.7,226.9,189.5,226.6z"/>
		</g>
		<path class="st1" d="M100.2,181.1c12.6,8.2,36.9-6.6,54.1-33.1c17.3-26.5,21-54.7,8.4-62.9c-12.6-8.2-36.9,6.6-54.1,33.1
			C91.4,144.7,87.6,172.8,100.2,181.1z M131.4,131.4c11.3-14,27.1-0.6,27.1-0.6s-8,17.6-17.9,27.2
			C140.6,158.1,119.6,146.1,131.4,131.4z"/>
	</g>
	<path class="st1" d="M101.3,104.6c1.9,1.3,2.4,4,1.1,5.9c-1.3,1.9-4,2.4-5.9,1.1L61.7,87.8c-0.9-0.6-1.5-1.5-1.7-2.4
		c-0.3-1.2-0.1-2.4,0.6-3.5c1.3-1.9,4-2.4,5.9-1.1L101.3,104.6z"/>
	<path class="st1" d="M89.1,122.1c2.3-0.2,4.4,1.6,4.5,3.9c0.2,2.3-1.6,4.4-3.9,4.5l-42,3c-1.1,0.1-2.1-0.2-2.8-0.8
		c-1-0.7-1.6-1.8-1.7-3.1c-0.2-2.3,1.6-4.4,3.9-4.5L89.1,122.1z"/>
	<path class="st1" d="M116,89.9c1.1,2.1,0.4,4.6-1.7,5.8c-2.1,1.1-4.6,0.4-5.8-1.7l-20.1-37C88,56,87.8,55,88,54
		c0.3-1.2,1-2.2,2.1-2.8c2.1-1.1,4.6-0.4,5.8,1.7L116,89.9z"/>
</g>
<g>
	<g>
		<path class="st4" d="M160.8,145.9c11.9-18.3,17.4-37.4,15.5-50.2c12.2,19.5,41,62.3,76,90.9c0,0,4.2,22.4-18.1,26.6
			c0,0-59.9-25-109.3-34.1C136.6,174.4,150.1,162.5,160.8,145.9z"/>
		<g>
			<path class="st4" d="M243.1,220.4c0.3,0,0.7-0.1,1-0.2c21.4-9.3,17.2-29.9,17.1-30.1c-0.4-1.6-2-2.7-3.6-2.3
				c-1.6,0.4-2.7,2-2.3,3.6c0.1,0.7,3.1,16-13.6,23.3c-1.5,0.7-2.2,2.5-1.6,4C240.6,219.8,241.9,220.5,243.1,220.4z"/>
		</g>
		<g>
			<path class="st4" d="M191.7,221.1c3.4-0.3,7.2-1.8,10.6-5.9l5.3-6.4c1.1-1.3,0.9-3.2-0.4-4.3c-1.3-1.1-3.2-0.9-4.3,0.4l-5.3,6.4
				c-4.7,5.7-9.9,3.2-10.1,3.1c-0.1-0.1-0.2-0.1-0.3-0.1c-0.2-0.1-20.2-7.5-28.6-13.3c-3.5-2.4,0.7-9.2,0.8-9.2
				c0.9-1.4,0.5-3.3-0.9-4.2c-1.4-0.9-3.3-0.5-4.2,0.9c-2.7,4.1-5.9,12.9,0.9,17.6c8.8,6,27.8,13.2,29.8,13.9
				C186.5,220.7,189,221.3,191.7,221.1z"/>
		</g>
		<path class="st4" d="M102.5,175.5c12.6,8.2,36.9-6.6,54.1-33.1c17.3-26.5,21-54.7,8.4-62.9c-12.6-8.2-36.9,6.6-54.1,33.1
			C93.6,139.1,89.9,167.3,102.5,175.5z M133.6,125.9c11.3-14,27.1-0.6,27.1-0.6s-8,17.6-17.9,27.2
			C142.8,152.5,121.8,140.5,133.6,125.9z"/>
	</g>
	<path class="st4" d="M103.6,99c1.9,1.3,2.4,4,1.1,5.9c-1.3,1.9-4,2.4-5.9,1.1L64,82.2c-0.9-0.6-1.5-1.5-1.7-2.4
		c-0.3-1.2-0.1-2.4,0.6-3.5c1.3-1.9,4-2.4,5.9-1.1L103.6,99z"/>
	<path class="st4" d="M91.4,116.6c2.3-0.2,4.4,1.6,4.5,3.9c0.2,2.3-1.6,4.4-3.9,4.5l-42,3c-1.1,0.1-2.1-0.2-2.8-0.8
		c-1-0.7-1.6-1.8-1.7-3.1c-0.2-2.3,1.6-4.4,3.9-4.5L91.4,116.6z"/>
	<path class="st4" d="M118.3,84.3c1.1,2.1,0.4,4.6-1.7,5.8c-2.1,1.1-4.6,0.4-5.8-1.7l-20.1-37c-0.5-0.9-0.6-2-0.4-2.9
		c0.3-1.2,1-2.2,2.1-2.8c2.1-1.1,4.6-0.4,5.8,1.7L118.3,84.3z"/>
</g>
</svg>
