<svg xmlns="http://www.w3.org/2000/svg" viewBox="0 0 1400 600"><defs><style>.a{opacity:0.25;fill:url(#a);}.b{fill:none;}</style><linearGradient id="a" x1="476" y1="300" x2="1400" y2="300" gradientUnits="userSpaceOnUse"><stop offset="0"/><stop offset="1" stop-color="#8bc53f"/></linearGradient></defs><title>Artboard 1</title><rect x="0" width="1401" height="600"/><rect class="a" x="476" width="924" height="600"/><polygon class="b" points="1400 500 1400 489 1398 489 1400 500"/><polygon class="b" points="1382 541 1391 539 1378 465 1400 461 1400 451 1367 457 1382 541"/><polygon class="b" points="1376 583 1374 583 1367 546 1342 551 1340 538 1330 540 1337 577 1334 578 1327 538 1342 535 1345 547 1366 543 1360 509 1336 513 1331 486 1355 481 1351 459 1280 472 1289 522 1239 531 1244 555 1241 556 1239 544 1192 552 1201 600 1210 600 1203 560 1231 555 1233 567 1255 563 1251 539 1253 538 1260 575 1294 569 1290 547 1278 549 1278 546 1293 544 1303 600 1313 600 1301 532 1266 539 1270 561 1283 558 1283 561 1268 564 1263 536 1300 530 1293 492 1296 492 1301 517 1310 515 1306 490 1309 490 1314 517 1301 520 1316 600 1335 600 1363 595 1357 561 1347 562 1352 587 1324 592 1313 527 1325 525 1317 478 1292 483 1291 480 1344 471 1344 474 1319 478 1328 525 1352 520 1355 535 1352 536 1350 524 1316 530 1326 589 1348 585 1344 560 1359 557 1366 595 1388 591 1383 566 1399 563 1400 571 1400 553 1372 558 1376 583"/><polygon class="b" points="1396 566 1387 568 1391 590 1400 588 1400 579 1398 579 1396 566"/><polygon class="b" points="1386 425 1400 422 1400 412 1394 413 1394 411 1400 409 1400 400 1383 403 1386 425"/><polygon class="b" points="1397 129 1400 128 1400 118 1396 119 1397 129"/><polygon class="b" points="1391 92 1400 90 1400 80 1399 80 1394 53 1400 52 1400 42 1382 45 1391 92"/><polygon class="b" points="1400 72 1400 54 1397 55 1400 72"/><polygon class="b" points="1376 439 1400 435 1400 425 1384 428 1379 400 1400 397 1400 387 1368 393 1376 439"/><polygon class="b" points="1380 45 1333 54 1337 76 1362 71 1364 86 1361 87 1359 75 1337 79 1339 91 1337 91 1330 54 1320 56 1327 93 1324 94 1320 69 1273 77 1277 99 1289 97 1290 100 1278 102 1279 112 1292 109 1296 134 1330 128 1328 116 1343 113 1348 138 1382 131 1378 110 1366 112 1365 109 1378 107 1376 97 1354 101 1358 123 1370 121 1371 124 1356 126 1351 102 1317 108 1319 120 1304 123 1297 86 1285 88 1284 85 1300 82 1306 120 1316 118 1309 81 1312 80 1316 105 1351 99 1349 86 1351 86 1354 98 1376 94 1369 60 1345 64 1344 62 1372 57 1381 106 1400 103 1400 93 1388 95 1380 45"/><polygon class="b" points="1400 0 1400 1 1400 0 1387 0 1388 3 1400 0"/><polygon class="b" points="1366 454 1400 448 1400 438 1374 443 1365 390 1400 384 1400 374 1353 382 1366 454"/><polygon class="b" points="1226 597 1226 600 1264 600 1277 598 1277 600 1287 600 1285 586 1226 597"/><polygon class="b" points="1372 274 1394 270 1390 245 1393 245 1398 272 1370 277 1363 240 1329 246 1333 268 1345 266 1348 281 1345 282 1343 269 1309 275 1324 359 1398 346 1400 357 1400 336 1344 346 1343 343 1368 338 1366 326 1369 326 1371 338 1381 336 1377 314 1355 318 1357 331 1332 335 1334 347 1331 348 1320 283 1323 283 1327 307 1389 296 1394 324 1391 324 1387 300 1340 308 1342 320 1339 321 1337 309 1328 310 1332 332 1354 328 1351 316 1379 311 1383 336 1400 333 1400 302 1399 295 1400 294 1400 285 1335 296 1332 281 1335 281 1337 293 1359 289 1353 255 1341 257 1340 254 1355 251 1362 288 1400 282 1400 233 1378 237 1383 262 1380 263 1375 235 1400 231 1400 221 1364 227 1372 274"/><polygon class="b" points="1400 600 1400 591 1352 600 1400 600"/><polygon class="b" points="636 588 638 600 648 600 647 595 712 584 715 600 725 600 720 573 636 588"/><polygon class="b" points="924 600 929 600 929 599 924 600"/><polygon class="b" points="651 598 651 600 661 600 660 596 651 598"/><polygon class="b" points="809 569 808 567 833 562 831 553 797 559 801 581 826 576 826 579 801 584 804 600 827 600 826 592 813 594 813 591 828 589 830 600 840 600 834 565 809 569"/><polygon class="b" points="663 596 664 600 693 600 702 598 702 600 712 600 710 587 663 596"/><polygon class="b" points="557 589 550 552 516 558 522 592 544 588 540 567 530 568 532 581 530 581 527 566 542 563 549 600 551 600 574 596 574 600 584 600 581 585 557 589"/><polygon class="b" points="670 579 668 569 621 577 625 600 635 600 633 585 670 579"/><polygon class="b" points="567 600 571 600 571 599 567 600"/><polygon class="b" points="567 574 560 537 489 550 490 560 503 557 510 600 546 600 544 591 519 596 512 556 552 549 559 586 584 581 587 600 597 600 593 580 596 579 600 600 610 600 604 568 567 574"/><polygon class="b" points="1146 598 1146 596 1158 593 1154 571 1120 578 1124 600 1134 600 1131 585 1146 583 1147 586 1135 588 1137 600 1159 600 1159 596 1146 598"/><polygon class="b" points="1058 589 1060 598 1072 596 1073 600 1083 600 1080 585 1058 589"/><polygon class="b" points="868 597 868 600 907 600 931 596 932 600 942 600 939 584 868 597"/><polygon class="b" points="1189 550 1238 541 1236 528 1248 526 1240 479 1193 488 1198 513 1161 519 1175 600 1185 600 1172 527 1175 527 1177 539 1224 531 1221 518 1234 516 1230 494 1208 498 1210 508 1222 505 1222 508 1210 510 1212 523 1185 528 1184 525 1209 520 1205 496 1232 491 1237 518 1225 520 1227 533 1177 542 1188 600 1193 600 1198 599 1189 550"/><polygon class="b" points="1105 567 1111 600 1121 600 1117 575 1157 568 1162 600 1172 600 1164 557 1105 567"/><polygon class="b" points="1066 600 1070 600 1070 599 1066 600"/><polygon class="b" points="1051 564 979 577 983 600 993 600 991 585 1030 578 1033 590 1042 589 1040 576 1043 576 1046 591 1033 593 1034 600 1050 600 1057 599 1051 564"/><polygon class="b" points="977 562 979 574 1025 566 1023 554 1026 553 1028 566 1038 564 1034 542 1012 546 1014 558 987 563 984 551 972 553 969 538 972 537 974 550 987 547 989 560 1011 556 1009 544 1036 539 1041 563 1137 546 1132 521 1135 521 1140 546 1149 544 1143 510 1131 512 1124 472 1198 458 1189 409 1229 402 1234 429 1231 430 1227 405 1192 411 1196 433 1209 431 1209 434 1197 436 1201 458 1213 456 1214 459 1164 467 1169 492 1166 493 1161 468 1127 474 1133 508 1155 505 1151 483 1142 484 1144 497 1141 497 1138 482 1153 479 1158 504 1180 500 1175 475 1225 466 1221 444 1209 447 1208 444 1220 442 1217 420 1204 422 1204 419 1219 416 1223 441 1245 437 1239 400 1276 393 1267 347 1221 355 1225 377 1249 373 1250 375 1222 380 1218 356 1193 360 1184 310 1150 317 1154 339 1166 336 1167 339 1142 344 1151 393 1089 404 1093 426 1177 411 1168 362 1171 361 1177 398 1212 392 1208 370 1186 374 1187 384 1200 381 1200 384 1185 387 1178 350 1156 354 1165 403 1101 415 1100 412 1162 401 1153 351 1178 347 1174 325 1162 327 1161 324 1176 322 1185 371 1210 367 1214 392 1261 383 1257 361 1232 366 1232 363 1260 358 1264 386 1178 401 1187 451 1112 464 1115 476 1112 477 1109 464 1050 475 1054 497 1079 493 1080 495 1067 498 1071 520 1084 517 1088 542 1122 536 1118 514 1106 516 1105 513 1118 511 1114 489 1102 491 1099 479 1090 481 1094 503 1106 500 1107 503 1094 506 1098 527 1111 525 1111 528 1096 531 1091 506 1079 508 1078 505 1091 503 1087 481 1062 486 1062 483 1102 476 1104 488 1116 486 1126 538 1049 552 1044 527 997 536 1000 548 997 549 995 536 982 538 980 526 958 530 971 600 980 600 974 563 977 562"/><polygon class="b" points="994 587 996 600 1019 600 1018 596 1006 598 1005 595 1020 593 1022 600 1032 600 1028 581 994 587"/><polygon class="b" points="1045 16 1051 50 1076 46 1082 83 1129 75 1127 62 1130 62 1132 77 1080 86 1073 49 1051 53 1053 63 1066 60 1071 88 1068 88 1063 64 1017 72 1023 106 1045 102 1042 90 1045 90 1050 114 1074 110 1079 135 1088 133 1082 99 1058 103 1053 78 1031 82 1033 95 1031 95 1028 80 1055 75 1060 100 1134 86 1135 89 1085 98 1092 135 1077 138 1072 113 1047 118 1045 105 1023 109 1027 131 1037 129 1034 117 1037 117 1049 181 999 190 1008 237 1030 233 1028 223 1016 226 1015 223 1027 221 1025 208 1040 205 1041 208 1029 211 1033 232 1067 226 1062 202 1102 194 1111 244 1158 236 1154 214 1129 218 1129 215 1156 210 1161 238 1124 245 1133 294 1121 296 1123 309 1110 311 1114 333 1127 331 1127 333 1115 336 1119 358 1131 355 1132 358 1107 363 1109 375 1106 376 1104 363 1082 367 1084 379 1082 380 1079 368 1057 372 1069 433 1066 434 1059 397 1000 407 1006 442 1028 438 1026 425 1041 423 1042 425 1029 428 1031 440 1007 445 1015 494 1013 495 1008 470 986 474 988 486 976 488 978 501 929 510 935 547 908 552 907 549 932 544 924 498 899 502 897 490 875 494 881 528 906 524 906 526 881 531 886 556 883 556 879 531 832 540 836 562 861 557 861 560 836 565 843 600 853 600 848 572 872 568 868 546 844 550 843 548 871 543 875 567 897 563 893 539 917 534 914 512 889 517 886 502 889 501 891 513 916 509 921 537 896 541 900 563 947 555 940 517 990 509 987 496 1000 494 998 482 1000 481 1005 506 1027 502 1018 452 1043 448 1040 436 1053 433 1049 411 1015 418 1017 430 1014 430 1011 415 1051 408 1058 445 1080 441 1069 379 1072 379 1074 391 1096 387 1093 375 1096 374 1098 387 1136 380 1136 383 1074 394 1083 444 1056 449 1053 436 1044 438 1046 450 1021 455 1030 504 1002 509 1000 497 991 499 993 511 943 520 950 557 851 575 855 600 865 600 862 583 865 582 867 594 954 579 957 594 954 595 952 582 942 584 945 600 968 600 962 568 875 583 875 580 961 565 955 528 982 523 984 535 1046 524 1051 549 1085 543 1081 521 1069 523 1064 498 1052 500 1047 473 1109 462 1105 437 1107 436 1112 461 1183 448 1177 414 1118 425 1122 447 1169 438 1167 429 1130 435 1129 432 1169 425 1172 440 1120 450 1115 425 1093 429 1098 454 1036 465 1044 512 1057 509 1061 534 1073 532 1074 535 1059 537 1054 513 992 524 992 521 1041 512 1032 463 1094 451 1086 402 1147 391 1144 369 1119 373 1118 370 1143 366 1139 344 1127 346 1126 344 1151 339 1147 314 1233 299 1223 240 1210 242 1204 205 1194 206 1201 244 1198 244 1191 204 1206 201 1213 239 1250 232 1250 235 1225 239 1229 261 1254 257 1255 259 1230 264 1236 298 1270 292 1266 270 1244 274 1246 284 1259 281 1259 284 1244 287 1241 272 1266 267 1262 245 1237 250 1237 247 1261 243 1258 221 1220 227 1214 190 1189 195 1182 157 1170 160 1165 132 1193 127 1195 142 1180 145 1180 142 1192 140 1190 130 1168 134 1172 156 1207 150 1200 116 1154 124 1160 161 1120 168 1120 166 1157 159 1150 122 1203 112 1210 152 1185 157 1191 191 1216 187 1223 224 1257 218 1251 183 1229 187 1233 209 1242 208 1240 195 1243 195 1246 210 1231 213 1224 176 1199 180 1196 165 1221 160 1211 101 1139 114 1146 151 1118 156 1118 153 1130 151 1126 126 1128 126 1133 151 1142 149 1136 115 1114 118 1119 143 1116 144 1111 116 1210 98 1192 0 1144 0 1146 8 1183 1 1199 91 1171 95 1168 80 1171 80 1174 92 1195 88 1185 29 1160 34 1160 31 1184 26 1180 4 1146 10 1148 20 1173 16 1173 18 1148 23 1152 45 1177 40 1184 80 1181 81 1179 68 1157 72 1162 97 1159 98 1154 70 1179 66 1175 44 1150 48 1148 36 1101 44 1103 57 1100 57 1090 0 1080 0 1093 68 1115 64 1112 52 1140 47 1142 59 1167 55 1167 58 1143 62 1149 99 1100 108 1113 180 1174 169 1175 172 1163 174 1164 183 1177 181 1190 255 1215 251 1222 291 1194 296 1194 293 1219 289 1217 279 1183 285 1185 298 1135 306 1140 331 1137 332 1135 319 1122 322 1122 319 1134 317 1132 304 1144 302 1135 252 1173 246 1164 199 1117 207 1121 229 1146 225 1147 228 1119 233 1114 205 1127 203 1124 190 1127 190 1129 202 1151 198 1149 186 1152 186 1154 198 1167 196 1176 248 1139 255 1145 289 1167 285 1165 273 1205 266 1205 268 1168 275 1170 287 1145 292 1147 301 1181 295 1179 283 1216 276 1212 254 1153 265 1156 277 1153 278 1150 263 1187 256 1174 184 1162 187 1160 174 1138 178 1140 191 1137 191 1135 179 1113 183 1115 195 1112 195 1110 183 1051 194 1056 218 1040 221 1040 218 1052 216 1048 194 1014 200 1016 213 1013 213 1011 198 1060 189 1049 127 1052 127 1063 189 1085 185 1083 172 1086 172 1088 184 1110 180 1104 146 1069 152 1071 162 1096 157 1098 172 1096 173 1093 161 1071 164 1074 177 1071 177 1061 125 1064 125 1069 149 1103 143 1096 106 1146 97 1138 50 1116 54 1118 67 1090 72 1084 34 1071 37 1071 34 1083 32 1081 22 1059 26 1062 38 1059 39 1056 24 1081 19 1077 0 1068 0 1070 11 1045 16"/><polygon class="b" points="730 44 732 56 754 52 748 18 736 20 735 17 748 15 745 0 722 0 724 7 736 4 736 7 724 9 728 31 740 29 743 44 740 45 738 32 726 35 720 0 710 0 718 46 730 44"/><polygon class="b" points="434 45 434 84 440 83 434 45"/><polygon class="b" points="453 84 434 87 434 97 445 95 446 98 434 100 434 110 457 105 453 84"/><polygon class="b" points="439 147 476 140 472 118 434 125 434 135 464 130 465 133 434 138 434 161 441 159 439 147"/><polygon class="b" points="438 211 463 207 456 170 505 161 502 139 492 140 494 153 454 160 454 157 491 151 480 89 532 79 534 92 544 90 542 78 544 77 549 105 547 105 544 93 532 95 530 83 483 91 487 113 497 111 494 99 522 94 524 106 537 104 537 107 525 109 533 156 545 154 546 156 534 159 535 168 557 164 555 152 592 145 588 120 591 120 597 157 607 155 598 109 586 111 573 37 449 59 438 0 434 0 434 33 434 33 441 70 565 48 579 125 554 129 556 139 580 135 581 137 553 142 551 127 575 123 563 51 441 73 443 82 456 80 461 108 434 113 434 122 472 116 465 78 555 62 564 115 539 119 544 144 541 145 536 117 561 112 552 66 468 81 480 143 442 149 449 187 434 189 434 187 434 199 451 196 451 199 434 202 434 238 442 236 438 211"/><polygon class="b" points="1400 13 1400 3 1385 6 1384 0 1374 0 1377 17 1400 13"/><polygon class="b" points="610 17 617 51 639 47 636 35 652 32 654 45 676 41 673 28 676 28 690 105 665 109 671 144 696 139 703 176 740 170 749 222 725 227 727 239 715 241 719 266 657 277 664 314 639 319 643 341 677 334 675 325 651 329 650 327 675 322 668 285 721 276 721 278 672 287 681 337 603 351 599 326 577 330 584 367 571 369 575 391 588 389 588 392 576 394 580 416 589 414 587 402 590 401 593 416 555 423 559 445 596 438 610 513 644 507 642 494 645 494 647 506 659 504 662 516 696 510 694 501 669 505 667 493 655 495 654 492 667 490 656 428 671 425 671 428 659 430 663 452 675 450 676 453 663 455 672 502 718 493 716 481 769 471 769 474 744 479 747 491 744 492 741 479 720 483 722 496 697 500 699 510 733 503 731 491 734 491 736 503 758 499 756 487 780 482 776 460 705 473 707 485 680 490 675 463 687 461 683 439 671 441 670 438 683 436 679 414 644 420 655 482 631 486 633 499 630 499 628 487 618 489 620 501 618 501 604 427 567 434 567 431 604 424 595 378 583 380 583 377 595 375 588 338 591 337 596 362 692 345 683 295 732 286 726 249 738 247 736 234 751 232 752 235 739 237 741 249 729 251 733 273 767 267 763 245 754 247 756 259 741 262 740 259 753 257 751 245 763 242 748 159 711 165 704 128 679 132 677 117 679 117 682 129 704 125 702 116 689 118 689 115 701 113 684 17 662 21 664 33 662 33 659 21 625 27 627 40 624 40 622 25 634 23 630 0 620 0 623 15 610 17"/><polygon class="b" points="531 16 528 0 518 0 519 8 516 8 515 0 505 0 509 20 531 16"/><polygon class="b" points="689 0 646 0 647 8 689 0"/><polygon class="b" points="546 0 543 0 544 1 546 0"/><polygon class="b" points="494 9 498 34 585 19 598 93 620 89 618 77 621 76 623 88 645 85 643 72 658 69 661 85 658 85 656 73 646 74 650 96 672 93 666 58 632 64 634 77 631 77 629 65 607 69 609 81 606 82 593 7 506 23 502 0 491 0 452 7 452 4 475 0 441 0 444 18 494 9"/><polygon class="b" points="453 582 441 584 436 557 448 554 446 542 474 537 476 552 473 553 471 540 449 544 451 557 439 559 443 581 455 579 458 591 480 587 477 575 493 572 498 600 507 600 500 561 466 567 468 579 465 580 463 567 451 570 450 567 463 565 461 552 463 552 466 564 488 560 481 526 434 534 434 544 436 544 437 547 434 547 434 595 455 592 453 582"/><polygon class="b" points="457 515 494 508 498 533 557 522 555 510 558 509 560 522 570 520 568 507 570 507 579 557 641 545 643 558 681 551 683 564 745 552 753 600 765 600 776 598 764 536 851 521 845 486 833 488 825 449 850 444 848 435 814 441 816 453 814 454 811 438 823 436 817 402 780 408 779 406 804 401 802 389 814 387 806 340 772 346 773 356 798 351 803 379 791 381 793 393 778 396 777 393 790 391 787 379 800 376 796 354 761 361 764 373 761 374 758 358 771 356 768 344 805 337 801 312 804 312 806 324 828 320 824 295 826 295 831 320 890 309 888 300 839 308 836 293 839 293 841 305 888 297 881 260 884 259 891 296 940 287 945 312 982 305 988 343 1047 332 1043 307 1058 305 1059 307 1046 310 1050 332 1085 325 1076 279 1051 283 1049 268 1052 267 1054 280 1076 276 1073 263 1076 263 1088 328 986 346 979 309 945 315 952 352 902 361 904 373 880 378 890 437 949 426 945 404 908 411 905 396 908 395 911 408 932 404 928 379 956 374 967 439 952 442 951 439 964 436 956 390 943 392 943 389 955 387 953 377 931 381 935 403 948 401 953 429 940 431 942 443 940 444 937 431 915 435 918 448 902 450 902 448 914 445 913 436 891 440 895 462 929 456 927 443 930 443 932 455 978 447 963 363 917 371 921 396 918 396 916 384 894 388 900 422 938 416 938 418 898 426 891 386 916 381 913 369 963 360 956 323 959 322 966 359 975 358 969 321 972 320 978 357 1099 336 1084 252 1062 256 1064 268 1062 269 1059 256 1037 260 1044 294 1068 290 1073 318 1058 320 1058 317 1070 315 1066 293 1032 299 1036 324 996 331 990 294 952 301 952 298 964 296 962 283 965 283 967 295 992 291 998 328 1033 322 1028 297 1041 295 1035 261 1013 264 1015 277 1003 279 1009 313 1018 312 1014 287 1026 285 1024 272 1027 272 1029 287 1017 289 1022 314 1006 317 1000 280 987 282 987 279 1012 275 1010 265 976 271 978 284 975 284 973 272 951 276 953 288 950 288 948 276 898 285 892 248 867 252 866 249 891 245 876 158 900 154 898 141 935 135 929 100 904 105 897 65 922 61 920 48 932 46 924 0 914 0 921 38 909 40 911 53 886 57 897 116 921 112 924 127 887 134 889 146 864 150 880 237 855 242 859 264 871 261 872 264 860 266 861 276 874 274 874 277 859 279 852 242 843 244 851 291 876 286 876 289 849 294 847 281 812 288 817 312 814 313 812 300 790 304 794 329 791 330 787 305 775 307 774 304 811 298 809 285 846 279 839 241 877 235 866 176 841 180 841 177 866 173 859 136 862 135 864 148 886 144 884 131 921 125 919 115 872 123 875 136 872 136 870 124 848 128 854 165 829 169 832 182 829 182 826 167 851 163 844 126 894 117 885 70 848 77 843 49 896 40 896 42 871 47 874 59 871 60 869 47 847 51 851 73 860 72 858 59 861 59 863 71 885 67 883 55 907 50 905 38 918 36 911 0 876 0 877 5 901 0 906 28 904 28 901 16 855 24 856 34 893 27 894 30 832 41 840 88 865 83 867 96 877 94 875 82 878 81 880 96 865 99 863 87 838 91 829 42 807 46 812 70 775 77 781 111 803 107 800 95 803 95 805 107 827 103 824 81 814 83 816 95 813 96 811 83 789 87 791 100 789 100 786 85 823 78 819 53 821 53 830 103 855 98 857 110 882 106 883 109 855 114 853 101 818 108 827 154 836 153 830 115 845 113 845 116 833 118 840 155 824 158 816 108 778 115 771 75 808 68 804 43 829 39 827 27 829 26 832 38 854 34 851 22 901 13 899 4 840 14 842 27 839 27 837 15 815 19 817 31 793 35 797 60 760 67 771 126 808 119 817 172 792 176 794 186 819 181 821 194 858 187 865 227 838 232 836 220 826 221 835 271 798 277 800 290 763 296 767 318 779 316 782 331 757 336 759 348 747 350 753 385 775 381 773 368 788 366 788 369 776 371 778 383 766 385 772 420 809 413 812 428 800 430 806 465 818 463 825 500 837 498 840 513 837 513 835 501 825 503 827 515 753 528 764 590 761 591 753 541 703 550 701 538 691 539 693 552 691 552 688 540 651 547 649 534 600 543 584 456 537 465 541 487 566 482 566 485 539 490 534 465 512 469 519 506 516 507 512 482 475 489 474 486 511 479 510 470 463 478 467 500 504 493 508 518 530 514 524 477 527 476 531 501 578 493 574 471 549 475 549 473 576 468 590 545 587 545 578 496 544 502 546 514 543 515 541 502 532 504 534 516 506 521 502 497 465 503 460 479 448 481 434 404 521 388 510 329 485 333 485 331 510 326 508 317 473 323 477 345 502 340 509 380 434 394 434 456 438 482 435 483 434 473 434 493 452 490 457 515"/><polygon class="b" points="484 523 488 547 562 534 569 571 606 564 613 600 622 600 616 563 619 562 621 575 630 573 628 561 631 560 633 572 670 566 673 578 735 567 735 570 723 572 727 594 739 592 739 595 727 597 728 600 750 600 747 581 734 583 734 580 746 578 742 556 680 567 678 554 641 561 639 549 577 560 570 523 496 536 492 511 442 520 442 517 454 515 450 493 434 496 434 506 442 504 443 507 434 509 434 528 434 531 484 523"/><polygon class="b" points="479 600 494 597 490 575 481 577 483 589 434 598 434 599 434 600 479 600"/><polygon class="b" points="434 259 434 263 434 263 434 259"/><polygon class="b" points="494 239 584 223 593 276 568 280 572 302 606 296 605 286 580 291 579 288 604 284 591 212 492 230 492 227 594 209 610 298 511 316 524 390 437 406 450 477 586 453 602 540 797 505 784 433 710 447 710 444 722 441 715 404 728 402 725 390 728 389 731 404 719 407 725 441 759 435 755 413 733 417 735 426 747 424 748 427 733 430 730 415 742 412 736 378 714 382 716 394 704 396 711 434 708 434 701 397 630 410 641 472 638 472 622 383 625 382 629 407 651 403 649 391 652 390 654 403 713 392 711 380 736 375 729 338 744 335 745 338 732 340 743 399 755 397 756 400 743 402 745 412 757 410 762 434 787 430 796 479 808 477 808 480 796 482 800 504 812 502 813 505 739 518 741 531 738 531 736 519 714 523 716 535 713 535 711 523 652 534 654 543 703 534 705 547 727 543 725 530 728 530 730 542 752 538 750 526 824 513 820 491 808 493 807 490 820 488 816 466 803 468 796 428 809 426 807 416 770 423 763 386 751 388 744 348 756 346 754 334 778 329 777 320 718 330 724 367 700 372 702 384 662 391 660 379 638 383 640 395 637 396 633 371 611 375 628 474 626 474 607 373 647 365 648 368 635 370 637 380 659 376 657 364 706 355 698 305 737 298 740 310 752 308 753 311 737 314 735 301 701 308 710 357 685 362 687 374 684 374 682 362 660 366 664 388 674 386 671 374 674 373 676 386 698 382 696 369 721 365 712 315 715 315 717 327 727 326 724 313 727 313 730 325 764 319 760 297 748 299 747 296 797 288 777 176 779 176 784 200 809 196 811 208 848 202 851 217 848 217 846 205 809 212 806 199 784 203 791 237 815 233 818 248 815 249 813 236 791 240 797 275 832 268 830 259 805 263 802 248 805 248 807 260 829 256 823 222 798 226 796 211 798 210 801 223 838 216 840 229 862 225 856 190 819 197 816 185 792 189 789 174 814 169 805 123 768 129 762 92 737 97 734 81 749 79 750 82 737 84 739 93 761 89 757 67 723 74 727 98 724 99 719 71 769 62 765 38 780 35 783 50 780 51 777 38 768 40 772 62 794 58 789 33 814 29 812 19 753 30 758 55 730 59 728 47 716 49 707 0 697 0 708 61 720 58 721 61 708 63 717 110 741 106 744 121 729 124 728 121 741 119 739 109 717 113 721 135 755 129 751 104 754 103 759 131 722 138 724 150 721 151 694 2 645 11 643 0 633 0 637 22 686 13 713 162 735 158 733 146 736 145 738 157 747 156 745 143 798 134 802 162 765 168 785 280 745 287 745 284 782 277 760 153 763 153 765 165 787 161 785 149 787 149 790 161 799 159 795 137 773 141 776 154 773 154 770 142 749 146 771 269 734 276 736 289 686 297 695 347 596 365 618 486 652 480 641 418 681 410 690 460 699 458 690 409 693 408 702 458 764 447 765 450 690 463 693 475 690 476 687 463 678 465 682 487 704 483 702 471 776 457 774 445 776 444 786 497 783 497 781 485 759 489 761 498 773 496 773 499 659 520 657 507 610 516 612 525 649 518 650 521 610 528 594 442 495 459 495 457 507 454 503 430 505 429 510 454 532 450 529 438 532 437 535 450 556 446 550 411 541 413 545 438 542 438 540 426 518 430 520 442 518 443 513 418 491 422 496 447 483 449 485 461 458 466 449 414 535 398 522 324 549 319 552 334 549 335 547 322 525 326 531 361 541 359 537 334 539 334 542 346 563 342 559 317 621 306 608 232 623 229 623 232 611 234 617 269 630 266 634 294 632 294 627 270 618 271 624 306 646 302 637 255 625 257 622 242 635 240 632 227 682 219 680 209 606 222 602 198 480 219 487 256 434 266 434 276 498 264 494 239"/><polygon class="b" points="444 389 440 364 442 364 447 389 506 378 500 344 475 348 470 320 507 314 503 289 506 289 510 313 569 303 560 253 563 253 568 277 590 273 581 227 497 242 501 264 526 259 531 287 528 287 524 263 477 271 481 296 441 303 441 300 453 298 451 285 454 285 456 297 478 293 474 271 465 273 467 286 464 286 462 274 440 278 442 290 439 291 437 278 434 279 434 314 434 314 493 304 488 279 516 274 520 299 542 295 534 248 509 252 509 250 573 238 578 266 575 266 571 241 549 245 558 295 555 295 546 246 537 248 546 297 518 302 514 277 492 281 496 306 459 313 467 359 492 355 495 370 455 377 450 352 434 355 434 385 435 391 444 389"/><polygon class="b" points="484 254 478 220 453 224 452 221 477 217 471 180 473 179 480 216 502 212 497 188 500 187 505 212 604 194 608 219 680 206 671 157 674 156 683 206 717 200 715 190 690 194 683 154 686 154 693 191 718 187 720 202 683 209 690 246 675 248 674 246 686 243 682 221 636 230 638 242 626 244 627 254 640 252 649 304 624 309 629 333 626 334 621 309 612 311 616 335 614 336 609 311 562 320 567 344 542 349 544 361 532 363 538 398 563 393 566 409 563 409 560 397 526 403 528 415 526 416 523 403 452 416 460 463 482 459 478 434 481 434 483 446 492 444 488 422 466 426 471 451 468 452 463 424 515 415 518 427 540 423 537 411 553 408 555 420 577 416 571 382 558 384 558 381 570 379 568 367 580 365 579 355 557 359 559 371 546 374 549 386 546 386 543 371 556 369 553 357 578 352 574 327 601 323 606 347 640 341 636 316 660 312 647 238 650 237 657 274 716 264 709 227 712 226 714 238 724 237 721 224 746 220 738 173 728 175 735 212 698 219 704 256 664 263 659 235 675 233 675 235 663 238 667 260 701 254 694 216 732 210 725 175 701 180 694 143 660 149 662 161 637 166 639 178 615 182 618 204 665 196 661 174 652 176 654 188 626 193 626 190 651 186 648 173 664 171 668 198 616 208 612 183 599 185 599 182 636 176 634 163 658 159 652 122 655 121 659 146 669 144 663 110 641 114 647 151 622 155 625 168 588 174 590 187 513 201 510 185 513 185 515 197 586 185 582 163 573 164 575 177 523 186 521 174 486 180 491 205 488 205 483 178 520 171 512 124 499 126 499 124 511 121 509 109 512 108 525 183 572 174 570 162 585 159 587 172 621 166 619 153 644 149 637 112 687 103 676 44 651 48 649 36 640 37 642 50 614 55 607 15 619 12 617 0 607 0 608 5 605 5 604 0 563 0 541 4 541 0 531 0 533 15 595 4 606 66 668 55 675 95 648 100 646 87 611 94 618 131 615 131 609 94 596 96 583 22 496 37 492 13 445 21 451 55 485 49 482 27 460 31 461 41 474 39 474 41 459 44 456 29 484 24 488 49 575 33 588 108 601 105 607 142 629 139 623 101 638 99 638 101 626 104 633 141 608 145 610 158 595 160 593 148 558 154 561 167 533 171 520 97 498 101 500 114 488 116 491 138 504 135 509 163 459 172 466 209 441 214 445 235 470 231 473 246 445 251 444 248 469 244 468 234 434 240 434 242 437 262 484 254"/><polygon class="b" points="457 374 491 368 490 358 465 363 460 338 448 340 448 337 460 335 456 313 434 317 434 327 448 324 449 327 436 329 439 342 436 342 434 330 434 353 453 349 457 374"/><polygon class="b" points="442 162 434 164 434 174 434 174 434 176 434 177 434 186 446 184 442 162"/><polygon class="b" points="1235 5 1239 29 1273 23 1269 0 1259 0 1262 15 1259 16 1256 0 1246 0 1250 18 1247 18 1244 0 1195 0 1197 11 1235 5"/><polygon class="b" points="1237 33 1232 8 1198 14 1213 98 1222 96 1209 22 1212 21 1219 59 1290 46 1288 36 1226 47 1222 20 1224 19 1229 44 1288 33 1282 0 1272 0 1277 25 1237 33"/><polygon class="b" points="1219 61 1226 98 1213 101 1225 163 1200 167 1201 177 1226 172 1228 185 1253 180 1258 205 1332 192 1332 194 1320 197 1326 231 1348 227 1344 205 1335 207 1337 219 1334 220 1331 204 1344 202 1340 180 1278 191 1275 176 1278 176 1280 188 1342 177 1352 229 1324 234 1317 197 1258 208 1274 294 1187 310 1195 357 1270 343 1272 356 1284 354 1285 356 1272 359 1276 381 1289 378 1289 381 1277 383 1279 396 1242 402 1249 440 1224 444 1228 469 1179 478 1183 502 1146 509 1153 546 1054 564 1057 586 1095 579 1097 594 1095 595 1092 583 1083 584 1086 600 1108 600 1102 568 1065 575 1065 572 1164 554 1157 517 1194 510 1190 485 1239 477 1235 452 1238 451 1242 476 1264 472 1260 450 1251 452 1253 464 1250 465 1247 450 1260 447 1253 410 1256 410 1268 474 1243 479 1251 526 1286 519 1279 485 1257 489 1261 511 1271 509 1269 497 1272 496 1274 512 1259 514 1254 487 1279 482 1266 408 1290 404 1288 391 1300 389 1297 367 1284 369 1284 366 1296 364 1292 342 1280 344 1279 342 1294 339 1306 404 1303 404 1301 392 1291 393 1294 406 1269 410 1279 469 1354 456 1361 496 1346 499 1345 496 1358 494 1356 484 1334 488 1338 510 1363 506 1372 555 1400 550 1400 516 1395 487 1400 486 1400 476 1393 478 1393 475 1400 473 1400 464 1381 467 1395 541 1379 544 1362 445 1349 447 1349 444 1361 442 1350 380 1400 371 1396 349 1321 363 1312 313 1291 317 1292 327 1305 324 1313 374 1388 361 1388 363 1339 372 1350 434 1337 436 1340 449 1287 458 1280 418 1317 412 1313 387 1328 384 1335 424 1323 426 1325 439 1297 444 1295 428 1310 426 1310 428 1298 431 1300 440 1322 436 1320 424 1332 422 1326 387 1316 389 1321 414 1283 420 1290 455 1336 446 1334 434 1347 432 1336 373 1311 377 1302 328 1203 345 1198 318 1297 300 1296 290 1283 293 1269 216 1272 215 1274 227 1299 223 1306 260 1318 258 1319 261 1304 263 1297 226 1275 230 1286 289 1298 287 1301 302 1276 307 1278 319 1275 320 1273 307 1251 311 1253 324 1251 324 1248 312 1226 316 1229 328 1226 329 1224 316 1202 320 1206 342 1215 340 1213 328 1216 327 1218 340 1240 336 1238 324 1240 323 1243 335 1265 331 1262 319 1265 319 1267 331 1289 327 1287 315 1312 310 1306 276 1293 278 1286 238 1289 238 1296 275 1330 269 1326 247 1314 249 1307 212 1282 216 1282 213 1309 208 1316 246 1363 237 1350 166 1288 177 1286 164 1264 168 1268 193 1265 194 1261 169 1236 173 1227 121 1230 120 1239 170 1248 168 1238 109 1225 111 1225 109 1237 106 1230 69 1305 56 1295 0 1285 0 1293 48 1219 61"/><polygon class="b" points="1107 5 1111 27 1133 23 1131 13 1119 15 1118 13 1130 10 1129 0 1119 0 1119 3 1107 5"/><polygon class="b" points="1234 71 1251 168 1288 161 1290 173 1352 162 1357 187 1379 183 1374 158 1389 156 1390 159 1378 161 1381 183 1394 180 1399 208 1396 209 1392 184 1357 190 1363 224 1385 220 1381 198 1372 200 1374 213 1371 213 1369 198 1384 195 1388 220 1400 218 1400 170 1389 171 1389 169 1400 167 1400 160 1397 144 1363 151 1367 175 1365 176 1360 151 1298 162 1298 159 1400 141 1400 143 1400 131 1395 132 1392 117 1400 115 1400 106 1381 109 1386 134 1284 152 1279 127 1267 129 1262 105 1253 106 1259 141 1271 139 1274 154 1271 154 1269 142 1259 144 1262 156 1259 156 1245 79 1260 77 1261 79 1248 82 1252 104 1265 101 1269 126 1281 124 1286 149 1345 138 1341 116 1332 118 1334 130 1294 137 1289 113 1277 115 1273 90 1260 92 1260 90 1272 87 1270 75 1319 66 1307 0 1298 0 1308 58 1234 71"/><polygon class="b" points="1331 0 1323 0 1323 1 1331 0"/><polygon class="b" points="1117 0 1106 0 1106 2 1117 0"/><polygon class="b" points="1400 26 1400 16 1375 21 1371 0 1362 0 1367 32 1400 26"/><polygon class="b" points="1400 39 1400 29 1340 40 1340 37 1364 32 1360 10 1336 15 1335 12 1360 8 1359 0 1347 0 1324 4 1328 26 1353 22 1353 25 1328 29 1331 41 1328 42 1320 0 1310 0 1320 53 1400 39"/><polygon class="b" points="785 8 783 0 774 0 774 1 771 1 771 0 761 0 763 12 785 8"/><polygon class="b" points="822 2 822 0 799 0 800 6 822 2"/><polygon class="b" points="832 0 825 0 825 1 832 0"/><polygon class="b" points="874 5 873 0 848 0 798 9 796 0 786 0 788 11 761 16 758 0 748 0 753 27 874 5"/><polygon class="b" points="935 61 933 49 923 50 925 63 901 67 907 102 932 97 939 137 902 144 903 153 950 145 941 95 981 88 990 141 963 146 962 143 987 138 983 116 958 121 958 118 983 114 979 92 944 98 946 107 971 103 971 106 947 110 951 132 975 128 976 130 951 135 953 147 879 161 901 282 1086 248 1103 338 966 362 982 449 892 465 874 363 877 363 879 375 901 371 899 359 948 350 938 291 891 299 893 311 807 327 818 389 805 391 807 401 819 398 826 436 851 431 854 446 829 451 835 485 847 483 854 520 864 518 857 481 860 481 867 521 768 538 779 600 789 600 779 546 819 539 820 542 782 549 792 600 801 600 794 556 831 550 829 537 878 529 868 469 843 474 840 459 855 456 856 459 843 461 845 471 867 467 859 420 846 422 846 419 858 417 856 408 834 411 837 424 834 424 818 335 905 319 902 307 930 302 937 342 934 342 928 305 906 309 908 322 895 324 898 336 895 337 893 324 821 337 834 409 856 405 847 355 850 355 874 491 899 486 901 499 911 497 909 485 911 484 914 497 926 494 928 507 963 501 959 479 946 481 946 478 973 473 974 476 961 478 965 500 975 498 973 486 985 484 983 471 1008 467 997 405 1059 394 1054 369 1116 358 1114 349 1043 361 1047 386 985 397 996 459 934 470 938 492 951 490 951 493 936 496 934 483 922 485 919 473 882 480 858 343 836 347 845 397 842 397 832 345 860 340 862 352 884 349 882 339 870 341 870 338 885 336 887 348 909 344 907 332 919 329 917 317 920 317 925 344 922 345 920 332 910 334 912 346 888 351 890 363 887 364 885 351 863 355 884 476 922 470 924 482 933 480 931 468 993 457 978 370 980 370 985 394 1007 390 1005 378 1007 378 1010 390 1032 386 1029 374 1032 373 1034 386 1044 384 1040 362 1018 366 1020 378 1017 379 1015 366 993 370 995 383 993 383 990 368 1114 346 1094 237 995 255 993 242 983 244 986 257 958 261 956 249 919 256 918 253 931 251 927 229 914 231 914 228 926 226 922 204 910 206 909 203 922 201 918 179 896 183 898 193 910 191 910 193 898 196 902 217 914 215 915 218 903 220 906 242 919 240 919 243 907 245 911 267 948 260 949 263 909 270 893 181 920 176 925 201 971 192 967 168 982 165 983 168 970 170 976 204 986 202 981 178 994 175 992 163 1016 159 1014 146 1017 146 1021 171 1031 169 1027 144 1029 144 1034 171 1019 174 1017 161 995 165 997 178 985 180 989 205 977 207 979 219 964 222 963 219 976 217 972 195 925 203 929 225 941 223 942 226 929 228 933 250 958 246 960 258 982 254 980 242 995 239 998 252 1081 236 1077 212 1092 209 1093 212 1080 214 1084 236 1097 234 1101 259 1113 256 1114 259 1102 261 1106 283 1118 281 1118 284 1106 286 1110 308 1120 306 1117 294 1130 292 1126 270 1113 272 1113 269 1125 267 1121 245 1109 247 1104 222 1092 225 1092 222 1104 220 1100 198 1066 204 1070 229 1005 240 1003 228 969 234 971 246 968 247 966 234 941 239 941 236 953 234 949 212 937 214 936 211 964 206 964 209 952 211 956 233 1003 225 1001 215 989 218 988 215 1000 213 996 188 1008 186 1006 173 1009 173 1011 185 1046 179 1037 132 1003 138 1005 151 956 160 960 184 932 189 928 165 891 171 890 168 930 161 935 186 957 182 953 160 943 162 945 174 943 175 940 160 1002 148 1000 136 1024 132 1018 97 996 101 1000 123 1010 122 1007 109 1010 109 1013 124 998 127 993 99 1018 95 1013 70 1050 63 1044 29 1019 33 1017 18 1020 17 1022 30 1044 26 1041 14 1066 9 1065 0 1055 0 1055 1 1030 6 1032 18 1030 19 1027 6 1005 10 1012 44 1036 40 1037 43 1009 48 1007 35 985 39 993 86 1003 84 996 47 999 47 1001 59 1039 52 1039 55 1002 62 1006 87 991 89 989 77 927 88 927 85 964 79 953 20 944 21 952 71 915 77 917 90 915 90 912 75 949 68 937 0 927 0 938 61 935 61"/><polygon class="b" points="974 0 953 0 953 4 974 0"/><polygon class="b" points="1027 3 1026 0 1004 0 1005 7 1027 3"/><polygon class="b" points="980 12 981 15 956 19 960 41 972 39 973 42 960 44 964 66 977 64 977 66 965 69 966 78 988 74 985 52 972 54 972 52 984 49 982 37 1007 33 1001 0 991 0 995 25 968 30 967 27 992 22 988 0 951 7 950 0 940 0 943 18 980 12"/><polygon class="b" points="1046 0 1029 0 1030 3 1046 0"/><polygon class="b" points="1147 33 1141 0 1131 0 1136 25 1108 30 1103 0 1093 0 1101 41 1147 33"/><polygon class="b" points="1258 578 1256 566 1234 570 1236 582 1233 583 1229 558 1207 562 1213 600 1223 600 1218 570 1221 569 1225 594 1247 590 1245 578 1248 577 1250 590 1287 583 1290 600 1300 600 1295 572 1258 578"/><polygon points="1395 132 1400 131 1400 128 1397 129 1396 119 1400 118 1400 115 1392 117 1395 132"/><polygon points="469 244 444 248 445 251 473 246 470 231 445 235 441 214 466 209 459 172 509 163 504 135 491 138 488 116 500 114 498 101 520 97 533 171 561 167 558 154 593 148 595 160 610 158 608 145 633 141 626 104 638 101 638 99 623 101 629 139 607 142 601 105 588 108 575 33 488 49 484 24 456 29 459 44 474 41 474 39 461 41 460 31 482 27 485 49 451 55 445 21 492 13 496 37 583 22 596 96 609 94 615 131 618 131 611 94 646 87 648 100 675 95 668 55 606 66 595 4 533 15 531 0 528 0 531 16 509 20 505 0 502 0 506 23 593 7 606 82 609 81 607 69 629 65 631 77 634 77 632 64 666 58 672 93 650 96 646 74 656 73 658 85 661 85 658 69 643 72 645 85 623 88 621 76 618 77 620 89 598 93 585 19 498 34 494 9 444 18 441 0 438 0 449 59 573 37 586 111 598 109 607 155 597 157 591 120 588 120 592 145 555 152 557 164 535 168 534 159 546 156 545 154 533 156 525 109 537 107 537 104 524 106 522 94 494 99 497 111 487 113 483 91 530 83 532 95 544 93 547 105 549 105 544 77 542 78 544 90 534 92 532 79 480 89 491 151 454 157 454 160 494 153 492 140 502 139 505 161 456 170 463 207 438 211 442 236 434 238 434 240 468 234 469 244"/><polygon points="1399 80 1400 80 1400 72 1397 55 1400 54 1400 52 1394 53 1399 80"/><polygon points="1380 263 1383 262 1378 237 1400 233 1400 231 1375 235 1380 263"/><polygon points="1379 311 1351 316 1354 328 1332 332 1328 310 1337 309 1339 321 1342 320 1340 308 1387 300 1391 324 1394 324 1389 296 1327 307 1323 283 1320 283 1331 348 1334 347 1332 335 1357 331 1355 318 1377 314 1381 336 1371 338 1369 326 1366 326 1368 338 1343 343 1344 346 1400 336 1400 333 1383 336 1379 311"/><polygon points="788 11 786 0 783 0 785 8 763 12 761 0 758 0 761 16 788 11"/><polygon points="519 8 518 0 515 0 516 8 519 8"/><polygon points="1374 443 1400 438 1400 435 1376 439 1368 393 1400 387 1400 384 1365 390 1374 443"/><polygon points="1400 3 1400 1 1400 0 1388 3 1387 0 1384 0 1385 6 1400 3"/><polygon points="1400 302 1400 294 1399 295 1400 302"/><polygon points="1355 251 1340 254 1341 257 1353 255 1359 289 1337 293 1335 281 1332 281 1335 296 1400 285 1400 282 1362 288 1355 251"/><polygon points="480 219 602 198 606 222 680 209 682 219 632 227 635 240 622 242 625 257 637 255 646 302 624 306 618 271 627 270 632 294 634 294 630 266 617 269 611 234 623 232 623 229 608 232 621 306 559 317 563 342 542 346 539 334 537 334 541 359 531 361 525 326 547 322 549 335 552 334 549 319 522 324 535 398 449 414 458 466 485 461 483 449 496 447 491 422 513 418 518 443 520 442 518 430 540 426 542 438 545 438 541 413 550 411 556 446 535 450 532 437 529 438 532 450 510 454 505 429 503 430 507 454 495 457 495 459 594 442 610 528 650 521 649 518 612 525 610 516 657 507 659 520 773 499 773 496 761 498 759 489 781 485 783 497 786 497 776 444 774 445 776 457 702 471 704 483 682 487 678 465 687 463 690 476 693 475 690 463 765 450 764 447 702 458 693 408 690 409 699 458 690 460 681 410 641 418 652 480 618 486 596 365 695 347 686 297 736 289 734 276 771 269 749 146 770 142 773 154 776 154 773 141 795 137 799 159 790 161 787 149 785 149 787 161 765 165 763 153 760 153 782 277 745 284 745 287 785 280 765 168 802 162 798 134 745 143 747 156 738 157 736 145 733 146 735 158 713 162 686 13 637 22 633 0 630 0 634 23 622 25 624 40 627 40 625 27 659 21 662 33 664 33 662 21 684 17 701 113 689 115 689 118 702 116 704 125 682 129 679 117 677 117 679 132 704 128 711 165 748 159 763 242 751 245 753 257 740 259 741 262 756 259 754 247 763 245 767 267 733 273 729 251 741 249 739 237 752 235 751 232 736 234 738 247 726 249 732 286 683 295 692 345 596 362 591 337 588 338 595 375 583 377 583 380 595 378 604 424 567 431 567 434 604 427 618 501 620 501 618 489 628 487 630 499 633 499 631 486 655 482 644 420 679 414 683 436 670 438 671 441 683 439 687 461 675 463 680 490 707 485 705 473 776 460 780 482 756 487 758 499 736 503 734 491 731 491 733 503 699 510 697 500 722 496 720 483 741 479 744 492 747 491 744 479 769 474 769 471 716 481 718 493 672 502 663 455 676 453 675 450 663 452 659 430 671 428 671 425 656 428 667 490 654 492 655 495 667 493 669 505 694 501 696 510 662 516 659 504 647 506 645 494 642 494 644 507 610 513 596 438 559 445 555 423 593 416 590 401 587 402 589 414 580 416 576 394 588 392 588 389 575 391 571 369 584 367 577 330 599 326 603 351 681 337 672 287 721 278 721 276 668 285 675 322 650 327 651 329 675 325 677 334 643 341 639 319 664 314 657 277 719 266 715 241 727 239 725 227 749 222 740 170 703 176 696 139 671 144 665 109 690 105 676 28 673 28 676 41 654 45 652 32 636 35 639 47 617 51 610 17 623 15 620 0 617 0 619 12 607 15 614 55 642 50 640 37 649 36 651 48 676 44 687 103 637 112 644 149 619 153 621 166 587 172 585 159 570 162 572 174 525 183 512 108 509 109 511 121 499 124 499 126 512 124 520 171 483 178 488 205 491 205 486 180 521 174 523 186 575 177 573 164 582 163 586 185 515 197 513 185 510 185 513 201 590 187 588 174 625 168 622 155 647 151 641 114 663 110 669 144 659 146 655 121 652 122 658 159 634 163 636 176 599 182 599 185 612 183 616 208 668 198 664 171 648 173 651 186 626 190 626 193 654 188 652 176 661 174 665 196 618 204 615 182 639 178 637 166 662 161 660 149 694 143 701 180 725 175 732 210 694 216 701 254 667 260 663 238 675 235 675 233 659 235 664 263 704 256 698 219 735 212 728 175 738 173 746 220 721 224 724 237 714 238 712 226 709 227 716 264 657 274 650 237 647 238 660 312 636 316 640 341 606 347 601 323 574 327 578 352 553 357 556 369 543 371 546 386 549 386 546 374 559 371 557 359 579 355 580 365 568 367 570 379 558 381 558 384 571 382 577 416 555 420 553 408 537 411 540 423 518 427 515 415 463 424 468 452 471 451 466 426 488 422 492 444 483 446 481 434 478 434 482 459 460 463 452 416 523 403 526 416 528 415 526 403 560 397 563 409 566 409 563 393 538 398 532 363 544 361 542 349 567 344 562 320 609 311 614 336 616 335 612 311 621 309 626 334 629 333 624 309 649 304 640 252 627 254 626 244 638 242 636 230 682 221 686 243 674 246 675 248 690 246 683 209 720 202 718 187 693 191 686 154 683 154 690 194 715 190 717 200 683 206 674 156 671 157 680 206 608 219 604 194 505 212 500 187 497 188 502 212 480 216 473 179 471 180 477 217 452 221 453 224 478 220 484 254 437 262 434 242 434 259 434 263 434 263 434 266 487 256 480 219"/><polygon points="608 5 607 0 604 0 605 5 608 5"/><polygon points="1103 57 1101 44 1148 36 1150 48 1175 44 1179 66 1154 70 1159 98 1162 97 1157 72 1179 68 1181 81 1184 80 1177 40 1152 45 1148 23 1173 18 1173 16 1148 20 1146 10 1180 4 1184 26 1160 31 1160 34 1185 29 1195 88 1174 92 1171 80 1168 80 1171 95 1199 91 1183 1 1146 8 1144 0 1141 0 1147 33 1101 41 1093 0 1090 0 1100 57 1103 57"/><polygon points="988 0 992 22 967 27 968 30 995 25 991 0 974 0 953 4 953 0 950 0 951 7 988 0"/><polygon points="563 0 546 0 544 1 543 0 541 0 541 4 563 0"/><polygon points="1041 14 1044 26 1022 30 1020 17 1017 18 1019 33 1044 29 1050 63 1013 70 1018 95 993 99 998 127 1013 124 1010 109 1007 109 1010 122 1000 123 996 101 1018 97 1024 132 1000 136 1002 148 940 160 943 175 945 174 943 162 953 160 957 182 935 186 930 161 890 168 891 171 928 165 932 189 960 184 956 160 1005 151 1003 138 1037 132 1046 179 1011 185 1009 173 1006 173 1008 186 996 188 1000 213 988 215 989 218 1001 215 1003 225 956 233 952 211 964 209 964 206 936 211 937 214 949 212 953 234 941 236 941 239 966 234 968 247 971 246 969 234 1003 228 1005 240 1070 229 1066 204 1100 198 1104 220 1092 222 1092 225 1104 222 1109 247 1121 245 1125 267 1113 269 1113 272 1126 270 1130 292 1117 294 1120 306 1110 308 1106 286 1118 284 1118 281 1106 283 1102 261 1114 259 1113 256 1101 259 1097 234 1084 236 1080 214 1093 212 1092 209 1077 212 1081 236 998 252 995 239 980 242 982 254 960 258 958 246 933 250 929 228 942 226 941 223 929 225 925 203 972 195 976 217 963 219 964 222 979 219 977 207 989 205 985 180 997 178 995 165 1017 161 1019 174 1034 171 1029 144 1027 144 1031 169 1021 171 1017 146 1014 146 1016 159 992 163 994 175 981 178 986 202 976 204 970 170 983 168 982 165 967 168 971 192 925 201 920 176 893 181 909 270 949 263 948 260 911 267 907 245 919 243 919 240 906 242 903 220 915 218 914 215 902 217 898 196 910 193 910 191 898 193 896 183 918 179 922 201 909 203 910 206 922 204 926 226 914 228 914 231 927 229 931 251 918 253 919 256 956 249 958 261 986 257 983 244 993 242 995 255 1094 237 1114 346 990 368 993 383 995 383 993 370 1015 366 1017 379 1020 378 1018 366 1040 362 1044 384 1034 386 1032 373 1029 374 1032 386 1010 390 1007 378 1005 378 1007 390 985 394 980 370 978 370 993 457 931 468 933 480 924 482 922 470 884 476 863 355 885 351 887 364 890 363 888 351 912 346 910 334 920 332 922 345 925 344 920 317 917 317 919 329 907 332 909 344 887 348 885 336 870 338 870 341 882 339 884 349 862 352 860 340 832 345 842 397 845 397 836 347 858 343 882 480 919 473 922 485 934 483 936 496 951 493 951 490 938 492 934 470 996 459 985 397 1047 386 1043 361 1114 349 1116 358 1054 369 1059 394 997 405 1008 467 983 471 985 484 973 486 975 498 965 500 961 478 974 476 973 473 946 478 946 481 959 479 963 501 928 507 926 494 914 497 911 484 909 485 911 497 901 499 899 486 874 491 850 355 847 355 856 405 834 409 821 337 893 324 895 337 898 336 895 324 908 322 906 309 928 305 934 342 937 342 930 302 902 307 905 319 818 335 834 424 837 424 834 411 856 408 858 417 846 419 846 422 859 420 867 467 845 471 843 461 856 459 855 456 840 459 843 474 868 469 878 529 829 537 831 550 794 556 801 600 804 600 801 584 826 579 826 576 801 581 797 559 831 553 833 562 808 567 809 569 834 565 840 600 843 600 836 565 861 560 861 557 836 562 832 540 879 531 883 556 886 556 881 531 906 526 906 524 881 528 875 494 897 490 899 502 924 498 932 544 907 549 908 552 935 547 929 510 978 501 976 488 988 486 986 474 1008 470 1013 495 1015 494 1007 445 1031 440 1029 428 1042 425 1041 423 1026 425 1028 438 1006 442 1000 407 1059 397 1066 434 1069 433 1057 372 1079 368 1082 380 1084 379 1082 367 1104 363 1106 376 1109 375 1107 363 1132 358 1131 355 1119 358 1115 336 1127 333 1127 331 1114 333 1110 311 1123 309 1121 296 1133 294 1124 245 1161 238 1156 210 1129 215 1129 218 1154 214 1158 236 1111 244 1102 194 1062 202 1067 226 1033 232 1029 211 1041 208 1040 205 1025 208 1027 221 1015 223 1016 226 1028 223 1030 233 1008 237 999 190 1049 181 1037 117 1034 117 1037 129 1027 131 1023 109 1045 105 1047 118 1072 113 1077 138 1092 135 1085 98 1135 89 1134 86 1060 100 1055 75 1028 80 1031 95 1033 95 1031 82 1053 78 1058 103 1082 99 1088 133 1079 135 1074 110 1050 114 1045 90 1042 90 1045 102 1023 106 1017 72 1063 64 1068 88 1071 88 1066 60 1053 63 1051 53 1073 49 1080 86 1132 77 1130 62 1127 62 1129 75 1082 83 1076 46 1051 50 1045 16 1070 11 1068 0 1065 0 1066 9 1041 14"/><polygon points="452 7 491 0 475 0 452 4 452 7"/><polygon points="1056 24 1059 39 1062 38 1059 26 1081 22 1083 32 1071 34 1071 37 1084 34 1090 72 1118 67 1116 54 1138 50 1146 97 1096 106 1103 143 1069 149 1064 125 1061 125 1071 177 1074 177 1071 164 1093 161 1096 173 1098 172 1096 157 1071 162 1069 152 1104 146 1110 180 1088 184 1086 172 1083 172 1085 185 1063 189 1052 127 1049 127 1060 189 1011 198 1013 213 1016 213 1014 200 1048 194 1052 216 1040 218 1040 221 1056 218 1051 194 1110 183 1112 195 1115 195 1113 183 1135 179 1137 191 1140 191 1138 178 1160 174 1162 187 1174 184 1187 256 1150 263 1153 278 1156 277 1153 265 1212 254 1216 276 1179 283 1181 295 1147 301 1145 292 1170 287 1168 275 1205 268 1205 266 1165 273 1167 285 1145 289 1139 255 1176 248 1167 196 1154 198 1152 186 1149 186 1151 198 1129 202 1127 190 1124 190 1127 203 1114 205 1119 233 1147 228 1146 225 1121 229 1117 207 1164 199 1173 246 1135 252 1144 302 1132 304 1134 317 1122 319 1122 322 1135 319 1137 332 1140 331 1135 306 1185 298 1183 285 1217 279 1219 289 1194 293 1194 296 1222 291 1215 251 1190 255 1177 181 1164 183 1163 174 1175 172 1174 169 1113 180 1100 108 1149 99 1143 62 1167 58 1167 55 1142 59 1140 47 1112 52 1115 64 1093 68 1080 0 1077 0 1081 19 1056 24"/><polygon points="1335 12 1336 15 1360 10 1364 32 1340 37 1340 40 1400 29 1400 26 1367 32 1362 0 1359 0 1360 8 1335 12"/><polygon points="912 75 915 90 917 90 915 77 952 71 944 21 953 20 964 79 927 85 927 88 989 77 991 89 1006 87 1002 62 1039 55 1039 52 1001 59 999 47 996 47 1003 84 993 86 985 39 1007 35 1009 48 1037 43 1036 40 1012 44 1005 10 1027 6 1030 19 1032 18 1030 6 1055 1 1055 0 1046 0 1030 3 1029 0 1026 0 1027 3 1005 7 1004 0 1001 0 1007 33 982 37 984 49 972 52 972 54 985 52 988 74 966 78 965 69 977 66 977 64 964 66 960 44 973 42 972 39 960 41 956 19 981 15 980 12 943 18 940 0 937 0 949 68 912 75"/><polygon points="848 0 832 0 825 1 825 0 822 0 822 2 800 6 799 0 796 0 798 9 848 0"/><polygon points="1400 16 1400 13 1377 17 1374 0 1371 0 1375 21 1400 16"/><polygon points="774 1 774 0 771 0 771 1 774 1"/><polygon points="1270 75 1272 87 1260 90 1260 92 1273 90 1277 115 1289 113 1294 137 1334 130 1332 118 1341 116 1345 138 1286 149 1281 124 1269 126 1265 101 1252 104 1248 82 1261 79 1260 77 1245 79 1259 156 1262 156 1259 144 1269 142 1271 154 1274 154 1271 139 1259 141 1253 106 1262 105 1267 129 1279 127 1284 152 1386 134 1381 109 1400 106 1400 103 1381 106 1372 57 1344 62 1345 64 1369 60 1376 94 1354 98 1351 86 1349 86 1351 99 1316 105 1312 80 1309 81 1316 118 1306 120 1300 82 1284 85 1285 88 1297 86 1304 123 1319 120 1317 108 1351 102 1356 126 1371 124 1370 121 1358 123 1354 101 1376 97 1378 107 1365 109 1366 112 1378 110 1382 131 1348 138 1343 113 1328 116 1330 128 1296 134 1292 109 1279 112 1278 102 1290 100 1289 97 1277 99 1273 77 1320 69 1324 94 1327 93 1320 56 1330 54 1337 91 1339 91 1337 79 1359 75 1361 87 1364 86 1362 71 1337 76 1333 54 1380 45 1388 95 1400 93 1400 90 1391 92 1382 45 1400 42 1400 39 1320 53 1310 0 1307 0 1319 66 1270 75"/><polygon points="1331 41 1328 29 1353 25 1353 22 1328 26 1324 4 1347 0 1331 0 1323 1 1323 0 1320 0 1328 42 1331 41"/><polygon points="1264 600 1277 600 1277 598 1264 600"/><polygon points="693 600 702 600 702 598 693 600"/><polygon points="1278 546 1278 549 1290 547 1294 569 1260 575 1253 538 1251 539 1255 563 1233 567 1231 555 1203 560 1210 600 1213 600 1207 562 1229 558 1233 583 1236 582 1234 570 1256 566 1258 578 1295 572 1300 600 1303 600 1293 544 1278 546"/><polygon points="1005 595 1006 598 1018 596 1019 600 1022 600 1020 593 1005 595"/><polygon points="593 580 597 600 600 600 596 579 593 580"/><polygon points="813 591 813 594 826 592 827 600 830 600 828 589 813 591"/><polygon points="551 600 567 600 571 599 571 600 574 600 574 596 551 600"/><polygon points="1250 590 1248 577 1245 578 1247 590 1225 594 1221 569 1218 570 1223 600 1226 600 1226 597 1285 586 1287 600 1290 600 1287 583 1250 590"/><polygon points="559 586 552 549 512 556 519 596 544 591 546 600 549 600 542 563 527 566 530 581 532 581 530 568 540 567 544 588 522 592 516 558 550 552 557 589 581 585 584 600 587 600 584 581 559 586"/><polygon points="820 542 819 539 779 546 789 600 792 600 782 549 820 542"/><polygon points="1384 428 1400 425 1400 422 1386 425 1383 403 1400 400 1400 397 1379 400 1384 428"/><polygon points="950 557 943 520 993 511 991 499 1000 497 1002 509 1030 504 1021 455 1046 450 1044 438 1053 436 1056 449 1083 444 1074 394 1136 383 1136 380 1098 387 1096 374 1093 375 1096 387 1074 391 1072 379 1069 379 1080 441 1058 445 1051 408 1011 415 1014 430 1017 430 1015 418 1049 411 1053 433 1040 436 1043 448 1018 452 1027 502 1005 506 1000 481 998 482 1000 494 987 496 990 509 940 517 947 555 900 563 896 541 921 537 916 509 891 513 889 501 886 502 889 517 914 512 917 534 893 539 897 563 875 567 871 543 843 548 844 550 868 546 872 568 848 572 853 600 855 600 851 575 950 557"/><polygon points="1147 586 1146 583 1131 585 1134 600 1137 600 1135 588 1147 586"/><polygon points="1046 591 1043 576 1040 576 1042 589 1033 590 1030 578 991 585 993 600 996 600 994 587 1028 581 1032 600 1034 600 1033 593 1046 591"/><polygon points="1117 575 1121 600 1124 600 1120 578 1154 571 1158 593 1146 596 1146 598 1159 596 1159 600 1162 600 1157 568 1117 575"/><polygon points="1394 413 1400 412 1400 409 1394 411 1394 413"/><polygon points="647 595 648 600 651 600 651 598 660 596 661 600 664 600 663 596 710 587 712 600 715 600 712 584 647 595"/><polygon points="434 599 434 600 434 600 434 599"/><polygon points="451 196 434 199 434 202 451 199 451 196"/><polygon points="488 560 466 564 463 552 461 552 463 565 450 567 451 570 463 567 465 580 468 579 466 567 500 561 507 600 510 600 503 557 490 560 489 550 560 537 567 574 604 568 610 600 613 600 606 564 569 571 562 534 488 547 484 523 434 531 434 528 434 534 481 526 488 560"/><polygon points="454 515 442 517 442 520 492 511 496 536 570 523 577 560 639 549 641 561 678 554 680 567 742 556 746 578 734 580 734 583 747 581 750 600 753 600 745 552 683 564 681 551 643 558 641 545 579 557 570 507 568 507 570 520 560 522 558 509 555 510 557 522 498 533 494 508 457 515 452 490 434 493 434 496 450 493 454 515"/><polygon points="455 377 495 370 492 355 467 359 459 313 496 306 492 281 514 277 518 302 546 297 537 248 546 246 555 295 558 295 549 245 571 241 575 266 578 266 573 238 509 250 509 252 534 248 542 295 520 299 516 274 488 279 493 304 434 314 434 314 434 317 456 313 460 335 448 337 448 340 460 338 465 363 490 358 491 368 457 374 453 349 434 353 434 355 450 352 455 377"/><polygon points="436 544 434 544 434 547 437 547 436 544"/><polygon points="438 482 434 456 434 473 435 483 438 482"/><polygon points="439 342 436 329 449 327 448 324 434 327 434 330 436 342 439 342"/><polygon points="449 187 442 149 480 143 468 81 552 66 561 112 536 117 541 145 544 144 539 119 564 115 555 62 465 78 472 116 434 122 434 125 472 118 476 140 439 147 441 159 434 161 434 164 442 162 446 184 434 186 434 187 434 189 449 187"/><polygon points="442 504 434 506 434 509 443 507 442 504"/><polygon points="502 340 477 345 473 323 508 317 510 326 485 331 485 333 510 329 521 388 434 404 448 481 460 479 465 503 502 497 506 521 534 516 532 504 541 502 543 515 546 514 544 502 578 496 587 545 590 545 576 468 549 473 549 475 574 471 578 493 531 501 527 476 524 477 530 514 508 518 504 493 467 500 463 478 510 470 511 479 474 486 475 489 512 482 516 507 519 506 512 469 534 465 539 490 566 485 566 482 541 487 537 465 584 456 600 543 649 534 651 547 688 540 691 552 693 552 691 539 701 538 703 550 753 541 761 591 764 590 753 528 827 515 825 503 835 501 837 513 840 513 837 498 825 500 818 463 806 465 800 430 812 428 809 413 772 420 766 385 778 383 776 371 788 369 788 366 773 368 775 381 753 385 747 350 759 348 757 336 782 331 779 316 767 318 763 296 800 290 798 277 835 271 826 221 836 220 838 232 865 227 858 187 821 194 819 181 794 186 792 176 817 172 808 119 771 126 760 67 797 60 793 35 817 31 815 19 837 15 839 27 842 27 840 14 899 4 901 13 851 22 854 34 832 38 829 26 827 27 829 39 804 43 808 68 771 75 778 115 816 108 824 158 840 155 833 118 845 116 845 113 830 115 836 153 827 154 818 108 853 101 855 114 883 109 882 106 857 110 855 98 830 103 821 53 819 53 823 78 786 85 789 100 791 100 789 87 811 83 813 96 816 95 814 83 824 81 827 103 805 107 803 95 800 95 803 107 781 111 775 77 812 70 807 46 829 42 838 91 863 87 865 99 880 96 878 81 875 82 877 94 867 96 865 83 840 88 832 41 894 30 893 27 856 34 855 24 901 16 904 28 906 28 901 0 877 5 876 0 873 0 874 5 753 27 748 0 745 0 748 15 735 17 736 20 748 18 754 52 732 56 730 44 718 46 710 0 707 0 716 49 728 47 730 59 758 55 753 30 812 19 814 29 789 33 794 58 772 62 768 40 777 38 780 51 783 50 780 35 765 38 769 62 719 71 724 99 727 98 723 74 757 67 761 89 739 93 737 84 750 82 749 79 734 81 737 97 762 92 768 129 805 123 814 169 789 174 792 189 816 185 819 197 856 190 862 225 840 229 838 216 801 223 798 210 796 211 798 226 823 222 829 256 807 260 805 248 802 248 805 263 830 259 832 268 797 275 791 240 813 236 815 249 818 248 815 233 791 237 784 203 806 199 809 212 846 205 848 217 851 217 848 202 811 208 809 196 784 200 779 176 777 176 797 288 747 296 748 299 760 297 764 319 730 325 727 313 724 313 727 326 717 327 715 315 712 315 721 365 696 369 698 382 676 386 674 373 671 374 674 386 664 388 660 366 682 362 684 374 687 374 685 362 710 357 701 308 735 301 737 314 753 311 752 308 740 310 737 298 698 305 706 355 657 364 659 376 637 380 635 370 648 368 647 365 607 373 626 474 628 474 611 375 633 371 637 396 640 395 638 383 660 379 662 391 702 384 700 372 724 367 718 330 777 320 778 329 754 334 756 346 744 348 751 388 763 386 770 423 807 416 809 426 796 428 803 468 816 466 820 488 807 490 808 493 820 491 824 513 750 526 752 538 730 542 728 530 725 530 727 543 705 547 703 534 654 543 652 534 711 523 713 535 716 535 714 523 736 519 738 531 741 531 739 518 813 505 812 502 800 504 796 482 808 480 808 477 796 479 787 430 762 434 757 410 745 412 743 402 756 400 755 397 743 399 732 340 745 338 744 335 729 338 736 375 711 380 713 392 654 403 652 390 649 391 651 403 629 407 625 382 622 383 638 472 641 472 630 410 701 397 708 434 711 434 704 396 716 394 714 382 736 378 742 412 730 415 733 430 748 427 747 424 735 426 733 417 755 413 759 435 725 441 719 407 731 404 728 389 725 390 728 402 715 404 722 441 710 444 710 447 784 433 797 505 602 540 586 453 450 477 437 406 524 390 511 316 610 298 594 209 492 227 492 230 591 212 604 284 579 288 580 291 605 286 606 296 572 302 568 280 593 276 584 223 494 239 498 264 434 276 434 279 437 278 439 291 442 290 440 278 462 274 464 286 467 286 465 273 474 271 478 293 456 297 454 285 451 285 453 298 441 300 441 303 481 296 477 271 524 263 528 287 531 287 526 259 501 264 497 242 581 227 590 273 568 277 563 253 560 253 569 303 510 313 506 289 503 289 507 314 470 320 475 348 500 344 506 378 447 389 442 364 440 364 444 389 435 391 434 385 434 394 509 380 502 340"/><polygon points="481 577 490 575 494 597 479 600 498 600 493 572 477 575 480 587 458 591 455 579 443 581 439 559 451 557 449 544 471 540 473 553 476 552 474 537 446 542 448 554 436 557 441 584 453 582 455 592 434 595 434 598 483 589 481 577"/><polygon points="1250 18 1246 0 1244 0 1247 18 1250 18"/><polygon points="1400 516 1400 500 1398 489 1400 489 1400 486 1395 487 1400 516"/><polygon points="1363 506 1338 510 1334 488 1356 484 1358 494 1345 496 1346 499 1361 496 1354 456 1279 469 1269 410 1294 406 1291 393 1301 392 1303 404 1306 404 1294 339 1279 342 1280 344 1292 342 1296 364 1284 366 1284 369 1297 367 1300 389 1288 391 1290 404 1266 408 1279 482 1254 487 1259 514 1274 512 1272 496 1269 497 1271 509 1261 511 1257 489 1279 485 1286 519 1251 526 1243 479 1268 474 1256 410 1253 410 1260 447 1247 450 1250 465 1253 464 1251 452 1260 450 1264 472 1242 476 1238 451 1235 452 1239 477 1190 485 1194 510 1157 517 1164 554 1065 572 1065 575 1102 568 1108 600 1111 600 1105 567 1164 557 1172 600 1175 600 1161 519 1198 513 1193 488 1240 479 1248 526 1236 528 1238 541 1189 550 1198 599 1193 600 1201 600 1192 552 1239 544 1241 556 1244 555 1239 531 1289 522 1280 472 1351 459 1355 481 1331 486 1336 513 1360 509 1366 543 1345 547 1342 535 1327 538 1334 578 1337 577 1330 540 1340 538 1342 551 1367 546 1374 583 1376 583 1372 558 1400 553 1400 550 1372 555 1363 506"/><polygon points="1389 171 1400 170 1400 167 1389 169 1389 171"/><polygon points="1383 566 1388 591 1366 595 1359 557 1344 560 1348 585 1326 589 1316 530 1350 524 1352 536 1355 535 1352 520 1328 525 1319 478 1344 474 1344 471 1291 480 1292 483 1317 478 1325 525 1313 527 1324 592 1352 587 1347 562 1357 561 1363 595 1335 600 1352 600 1400 591 1400 588 1391 590 1387 568 1396 566 1398 579 1400 579 1400 571 1399 563 1383 566"/><polygon points="1393 478 1400 476 1400 473 1393 475 1393 478"/><polygon points="1314 517 1309 490 1306 490 1310 515 1301 517 1296 492 1293 492 1300 530 1263 536 1268 564 1283 561 1283 558 1270 561 1266 539 1301 532 1313 600 1316 600 1301 520 1314 517"/><polygon points="739 595 739 592 727 594 723 572 735 570 735 567 673 578 670 566 633 572 631 560 628 561 630 573 621 575 619 562 616 563 622 600 625 600 621 577 668 569 670 579 633 585 635 600 638 600 636 588 720 573 725 600 728 600 727 597 739 595"/><polygon points="434 174 434 174 434 177 434 176 434 174"/><polygon points="907 600 924 600 929 599 929 600 932 600 931 596 907 600"/><polygon points="1227 533 1225 520 1237 518 1232 491 1205 496 1209 520 1184 525 1185 528 1212 523 1210 510 1222 508 1222 505 1210 508 1208 498 1230 494 1234 516 1221 518 1224 531 1177 539 1175 527 1172 527 1185 600 1188 600 1177 542 1227 533"/><polygon points="952 582 954 595 957 594 954 579 867 594 865 582 862 583 865 600 868 600 868 597 939 584 942 600 945 600 942 584 952 582"/><polygon points="1298 159 1298 162 1360 151 1365 176 1367 175 1363 151 1397 144 1400 160 1400 143 1400 141 1298 159"/><polygon points="738 32 740 45 743 44 740 29 728 31 724 9 736 7 736 4 724 7 722 0 720 0 726 35 738 32"/><polygon points="694 2 721 151 724 150 722 138 759 131 754 103 751 104 755 129 721 135 717 113 739 109 741 119 728 121 729 124 744 121 741 106 717 110 708 63 721 61 720 58 708 61 697 0 689 0 647 8 646 0 643 0 645 11 694 2"/><polygon points="445 95 434 97 434 100 446 98 445 95"/><polygon points="456 80 443 82 441 73 563 51 575 123 551 127 553 142 581 137 580 135 556 139 554 129 579 125 565 48 441 70 434 33 434 33 434 45 440 83 434 84 434 87 453 84 457 105 434 110 434 113 461 108 456 80"/><polygon points="464 130 434 135 434 138 465 133 464 130"/><polygon points="1136 25 1131 0 1129 0 1130 10 1118 13 1119 15 1131 13 1133 23 1111 27 1107 5 1119 3 1119 0 1117 0 1106 2 1106 0 1103 0 1108 30 1136 25"/><polygon points="1262 15 1259 0 1256 0 1259 16 1262 15"/><polygon points="1111 116 1116 144 1119 143 1114 118 1136 115 1142 149 1133 151 1128 126 1126 126 1130 151 1118 153 1118 156 1146 151 1139 114 1211 101 1221 160 1196 165 1199 180 1224 176 1231 213 1246 210 1243 195 1240 195 1242 208 1233 209 1229 187 1251 183 1257 218 1223 224 1216 187 1191 191 1185 157 1210 152 1203 112 1150 122 1157 159 1120 166 1120 168 1160 161 1154 124 1200 116 1207 150 1172 156 1168 134 1190 130 1192 140 1180 142 1180 145 1195 142 1193 127 1165 132 1170 160 1182 157 1189 195 1214 190 1220 227 1258 221 1261 243 1237 247 1237 250 1262 245 1266 267 1241 272 1244 287 1259 284 1259 281 1246 284 1244 274 1266 270 1270 292 1236 298 1230 264 1255 259 1254 257 1229 261 1225 239 1250 235 1250 232 1213 239 1206 201 1191 204 1198 244 1201 244 1194 206 1204 205 1210 242 1223 240 1233 299 1147 314 1151 339 1126 344 1127 346 1139 344 1143 366 1118 370 1119 373 1144 369 1147 391 1086 402 1094 451 1032 463 1041 512 992 521 992 524 1054 513 1059 537 1074 535 1073 532 1061 534 1057 509 1044 512 1036 465 1098 454 1093 429 1115 425 1120 450 1172 440 1169 425 1129 432 1130 435 1167 429 1169 438 1122 447 1118 425 1177 414 1183 448 1112 461 1107 436 1105 437 1109 462 1047 473 1052 500 1064 498 1069 523 1081 521 1085 543 1051 549 1046 524 984 535 982 523 955 528 961 565 875 580 875 583 962 568 968 600 971 600 958 530 980 526 982 538 995 536 997 549 1000 548 997 536 1044 527 1049 552 1126 538 1116 486 1104 488 1102 476 1062 483 1062 486 1087 481 1091 503 1078 505 1079 508 1091 506 1096 531 1111 528 1111 525 1098 527 1094 506 1107 503 1106 500 1094 503 1090 481 1099 479 1102 491 1114 489 1118 511 1105 513 1106 516 1118 514 1122 536 1088 542 1084 517 1071 520 1067 498 1080 495 1079 493 1054 497 1050 475 1109 464 1112 477 1115 476 1112 464 1187 451 1178 401 1264 386 1260 358 1232 363 1232 366 1257 361 1261 383 1214 392 1210 367 1185 371 1176 322 1161 324 1162 327 1174 325 1178 347 1153 351 1162 401 1100 412 1101 415 1165 403 1156 354 1178 350 1185 387 1200 384 1200 381 1187 384 1186 374 1208 370 1212 392 1177 398 1171 361 1168 362 1177 411 1093 426 1089 404 1151 393 1142 344 1167 339 1166 336 1154 339 1150 317 1184 310 1193 360 1218 356 1222 380 1250 375 1249 373 1225 377 1221 355 1267 347 1276 393 1239 400 1245 437 1223 441 1219 416 1204 419 1204 422 1217 420 1220 442 1208 444 1209 447 1221 444 1225 466 1175 475 1180 500 1158 504 1153 479 1138 482 1141 497 1144 497 1142 484 1151 483 1155 505 1133 508 1127 474 1161 468 1166 493 1169 492 1164 467 1214 459 1213 456 1201 458 1197 436 1209 434 1209 431 1196 433 1192 411 1227 405 1231 430 1234 429 1229 402 1189 409 1198 458 1124 472 1131 512 1143 510 1149 544 1140 546 1135 521 1132 521 1137 546 1041 563 1036 539 1009 544 1011 556 989 560 987 547 974 550 972 537 969 538 972 553 984 551 987 563 1014 558 1012 546 1034 542 1038 564 1028 566 1026 553 1023 554 1025 566 979 574 977 562 974 563 980 600 983 600 979 577 1051 564 1057 599 1050 600 1066 600 1070 599 1070 600 1073 600 1072 596 1060 598 1058 589 1080 585 1083 600 1086 600 1083 584 1092 583 1095 595 1097 594 1095 579 1057 586 1054 564 1153 546 1146 509 1183 502 1179 478 1228 469 1224 444 1249 440 1242 402 1279 396 1277 383 1289 381 1289 378 1276 381 1272 359 1285 356 1284 354 1272 356 1270 343 1195 357 1187 310 1274 294 1258 208 1317 197 1324 234 1352 229 1342 177 1280 188 1278 176 1275 176 1278 191 1340 180 1344 202 1331 204 1334 220 1337 219 1335 207 1344 205 1348 227 1326 231 1320 197 1332 194 1332 192 1258 205 1253 180 1228 185 1226 172 1201 177 1200 167 1225 163 1213 101 1226 98 1219 61 1293 48 1285 0 1282 0 1288 33 1229 44 1224 19 1222 20 1226 47 1288 36 1290 46 1219 59 1212 21 1209 22 1222 96 1213 98 1198 14 1232 8 1237 33 1277 25 1272 0 1269 0 1273 23 1239 29 1235 5 1197 11 1195 0 1192 0 1210 98 1111 116"/><polygon points="905 38 907 50 883 55 885 67 863 71 861 59 858 59 860 72 851 73 847 51 869 47 871 60 874 59 871 47 896 42 896 40 843 49 848 77 885 70 894 117 844 126 851 163 826 167 829 182 832 182 829 169 854 165 848 128 870 124 872 136 875 136 872 123 919 115 921 125 884 131 886 144 864 148 862 135 859 136 866 173 841 177 841 180 866 176 877 235 839 241 846 279 809 285 811 298 774 304 775 307 787 305 791 330 794 329 790 304 812 300 814 313 817 312 812 288 847 281 849 294 876 289 876 286 851 291 843 244 852 242 859 279 874 277 874 274 861 276 860 266 872 264 871 261 859 264 855 242 880 237 864 150 889 146 887 134 924 127 921 112 897 116 886 57 911 53 909 40 921 38 914 0 911 0 918 36 905 38"/><polygon points="920 48 922 61 897 65 904 105 929 100 935 135 898 141 900 154 876 158 891 245 866 249 867 252 892 248 898 285 948 276 950 288 953 288 951 276 973 272 975 284 978 284 976 271 1010 265 1012 275 987 279 987 282 1000 280 1006 317 1022 314 1017 289 1029 287 1027 272 1024 272 1026 285 1014 287 1018 312 1009 313 1003 279 1015 277 1013 264 1035 261 1041 295 1028 297 1033 322 998 328 992 291 967 295 965 283 962 283 964 296 952 298 952 301 990 294 996 331 1036 324 1032 299 1066 293 1070 315 1058 317 1058 320 1073 318 1068 290 1044 294 1037 260 1059 256 1062 269 1064 268 1062 256 1084 252 1099 336 978 357 972 320 969 321 975 358 966 359 959 322 956 323 963 360 913 369 916 381 891 386 898 426 938 418 938 416 900 422 894 388 916 384 918 396 921 396 917 371 963 363 978 447 932 455 930 443 927 443 929 456 895 462 891 440 913 436 914 445 902 448 902 450 918 448 915 435 937 431 940 444 942 443 940 431 953 429 948 401 935 403 931 381 953 377 955 387 943 389 943 392 956 390 964 436 951 439 952 442 967 439 956 374 928 379 932 404 911 408 908 395 905 396 908 411 945 404 949 426 890 437 880 378 904 373 902 361 952 352 945 315 979 309 986 346 1088 328 1076 263 1073 263 1076 276 1054 280 1052 267 1049 268 1051 283 1076 279 1085 325 1050 332 1046 310 1059 307 1058 305 1043 307 1047 332 988 343 982 305 945 312 940 287 891 296 884 259 881 260 888 297 841 305 839 293 836 293 839 308 888 300 890 309 831 320 826 295 824 295 828 320 806 324 804 312 801 312 805 337 768 344 771 356 758 358 761 374 764 373 761 361 796 354 800 376 787 379 790 391 777 393 778 396 793 393 791 381 803 379 798 351 773 356 772 346 806 340 814 387 802 389 804 401 779 406 780 408 817 402 823 436 811 438 814 454 816 453 814 441 848 435 850 444 825 449 833 488 845 486 851 521 764 536 776 598 765 600 779 600 768 538 867 521 860 481 857 481 864 518 854 520 847 483 835 485 829 451 854 446 851 431 826 436 819 398 807 401 805 391 818 389 807 327 893 311 891 299 938 291 948 350 899 359 901 371 879 375 877 363 874 363 892 465 982 449 966 362 1103 338 1086 248 901 282 879 161 953 147 951 135 976 130 975 128 951 132 947 110 971 106 971 103 946 107 944 98 979 92 983 114 958 118 958 121 983 116 987 138 962 143 963 146 990 141 981 88 941 95 950 145 903 153 902 144 939 137 932 97 907 102 901 67 925 63 923 50 933 49 935 61 938 61 927 0 924 0 932 46 920 48"/><polygon points="1230 69 1237 106 1225 109 1225 111 1238 109 1248 168 1239 170 1230 120 1227 121 1236 173 1261 169 1265 194 1268 193 1264 168 1286 164 1288 177 1350 166 1363 237 1316 246 1309 208 1282 213 1282 216 1307 212 1314 249 1326 247 1330 269 1296 275 1289 238 1286 238 1293 278 1306 276 1312 310 1287 315 1289 327 1267 331 1265 319 1262 319 1265 331 1243 335 1240 323 1238 324 1240 336 1218 340 1216 327 1213 328 1215 340 1206 342 1202 320 1224 316 1226 329 1229 328 1226 316 1248 312 1251 324 1253 324 1251 311 1273 307 1275 320 1278 319 1276 307 1301 302 1298 287 1286 289 1275 230 1297 226 1304 263 1319 261 1318 258 1306 260 1299 223 1274 227 1272 215 1269 216 1283 293 1296 290 1297 300 1198 318 1203 345 1302 328 1311 377 1336 373 1347 432 1334 434 1336 446 1290 455 1283 420 1321 414 1316 389 1326 387 1332 422 1320 424 1322 436 1300 440 1298 431 1310 428 1310 426 1295 428 1297 444 1325 439 1323 426 1335 424 1328 384 1313 387 1317 412 1280 418 1287 458 1340 449 1337 436 1350 434 1339 372 1388 363 1388 361 1313 374 1305 324 1292 327 1291 317 1312 313 1321 363 1396 349 1400 371 1350 380 1361 442 1349 444 1349 447 1362 445 1379 544 1395 541 1381 467 1400 464 1400 461 1378 465 1391 539 1382 541 1367 457 1400 451 1400 448 1366 454 1353 382 1400 374 1400 357 1398 346 1324 359 1309 275 1343 269 1345 282 1348 281 1345 266 1333 268 1329 246 1363 240 1370 277 1398 272 1393 245 1390 245 1394 270 1372 274 1364 227 1400 221 1400 218 1388 220 1384 195 1369 198 1371 213 1374 213 1372 200 1381 198 1385 220 1363 224 1357 190 1392 184 1396 209 1399 208 1394 180 1381 183 1378 161 1390 159 1389 156 1374 158 1379 183 1357 187 1352 162 1290 173 1288 161 1251 168 1234 71 1308 58 1298 0 1295 0 1305 56 1230 69"/></svg>